<mxfile host="Electron" agent="Mozilla/5.0 (Windows NT 10.0; Win64; x64) AppleWebKit/537.36 (KHTML, like Gecko) draw.io/24.7.17 Chrome/128.0.6613.36 Electron/32.0.1 Safari/537.36" version="24.7.17">
  <diagram name="Страница — 1" id="AmvbNV_ZYuzC8Duhjicf">
    <mxGraphModel dx="1358" dy="654" grid="1" gridSize="10" guides="1" tooltips="1" connect="1" arrows="1" fold="1" page="1" pageScale="1" pageWidth="827" pageHeight="1169" math="0" shadow="0">
      <root>
        <mxCell id="0" />
        <mxCell id="1" parent="0" />
        <mxCell id="xXruDj0edoCPTzMCnj74-1" value="начало" style="ellipse;whiteSpace=wrap;html=1;" vertex="1" parent="1">
          <mxGeometry x="160" width="80" height="30" as="geometry" />
        </mxCell>
        <mxCell id="xXruDj0edoCPTzMCnj74-2" value="" style="endArrow=classic;html=1;rounded=0;" edge="1" parent="1">
          <mxGeometry width="50" height="50" relative="1" as="geometry">
            <mxPoint x="199.5" y="30" as="sourcePoint" />
            <mxPoint x="199.5" y="60" as="targetPoint" />
          </mxGeometry>
        </mxCell>
        <mxCell id="xXruDj0edoCPTzMCnj74-3" value="" style="endArrow=none;dashed=1;html=1;rounded=0;" edge="1" parent="1">
          <mxGeometry width="50" height="50" relative="1" as="geometry">
            <mxPoint x="200" y="40" as="sourcePoint" />
            <mxPoint x="250" y="40" as="targetPoint" />
          </mxGeometry>
        </mxCell>
        <mxCell id="xXruDj0edoCPTzMCnj74-5" value="" style="strokeWidth=2;html=1;shape=mxgraph.flowchart.annotation_1;align=left;pointerEvents=1;" vertex="1" parent="1">
          <mxGeometry x="250" y="10" width="10" height="60" as="geometry" />
        </mxCell>
        <mxCell id="xXruDj0edoCPTzMCnj74-6" value="&lt;div&gt;#include&amp;lt;iostream&amp;gt;&lt;/div&gt;&lt;div&gt;#include&amp;lt;clocale&amp;gt;&lt;/div&gt;&lt;div&gt;using namespace std;&lt;/div&gt;&lt;div&gt;const int n = 7; int r;&lt;br&gt;&lt;/div&gt;" style="text;html=1;align=center;verticalAlign=middle;resizable=0;points=[];autosize=1;strokeColor=none;fillColor=none;" vertex="1" parent="1">
          <mxGeometry x="240" y="5" width="140" height="70" as="geometry" />
        </mxCell>
        <mxCell id="xXruDj0edoCPTzMCnj74-7" value="int main()" style="shape=process;whiteSpace=wrap;html=1;backgroundOutline=1;" vertex="1" parent="1">
          <mxGeometry x="160" y="60" width="80" height="40" as="geometry" />
        </mxCell>
        <mxCell id="xXruDj0edoCPTzMCnj74-8" value="" style="endArrow=classic;html=1;rounded=0;" edge="1" parent="1">
          <mxGeometry width="50" height="50" relative="1" as="geometry">
            <mxPoint x="199.5" y="100" as="sourcePoint" />
            <mxPoint x="200" y="120" as="targetPoint" />
          </mxGeometry>
        </mxCell>
        <mxCell id="xXruDj0edoCPTzMCnj74-9" value="setlocale(LC_ALL, &quot;RUS&quot;);" style="rounded=0;whiteSpace=wrap;html=1;" vertex="1" parent="1">
          <mxGeometry x="145" y="120" width="110" height="40" as="geometry" />
        </mxCell>
        <mxCell id="xXruDj0edoCPTzMCnj74-10" value="" style="endArrow=classic;html=1;rounded=0;" edge="1" parent="1">
          <mxGeometry width="50" height="50" relative="1" as="geometry">
            <mxPoint x="199.5" y="160" as="sourcePoint" />
            <mxPoint x="200" y="180" as="targetPoint" />
          </mxGeometry>
        </mxCell>
        <mxCell id="xXruDj0edoCPTzMCnj74-11" value="int m[n] = {};" style="rounded=0;whiteSpace=wrap;html=1;" vertex="1" parent="1">
          <mxGeometry x="145" y="180" width="110" height="40" as="geometry" />
        </mxCell>
        <mxCell id="xXruDj0edoCPTzMCnj74-12" value="" style="endArrow=classic;html=1;rounded=0;" edge="1" parent="1">
          <mxGeometry width="50" height="50" relative="1" as="geometry">
            <mxPoint x="199.5" y="220" as="sourcePoint" />
            <mxPoint x="200" y="240" as="targetPoint" />
          </mxGeometry>
        </mxCell>
        <mxCell id="xXruDj0edoCPTzMCnj74-14" value="cout &amp;lt;&amp;lt; &quot;исходный массив &quot;;" style="shape=parallelogram;perimeter=parallelogramPerimeter;whiteSpace=wrap;html=1;fixedSize=1;" vertex="1" parent="1">
          <mxGeometry x="135" y="240" width="135" height="40" as="geometry" />
        </mxCell>
        <mxCell id="xXruDj0edoCPTzMCnj74-15" value="" style="endArrow=classic;html=1;rounded=0;" edge="1" parent="1" target="xXruDj0edoCPTzMCnj74-16">
          <mxGeometry width="50" height="50" relative="1" as="geometry">
            <mxPoint x="199.5" y="280" as="sourcePoint" />
            <mxPoint x="200" y="300" as="targetPoint" />
          </mxGeometry>
        </mxCell>
        <mxCell id="xXruDj0edoCPTzMCnj74-16" value="for (int i = 0; i &amp;lt; n; i++)" style="shape=hexagon;perimeter=hexagonPerimeter2;whiteSpace=wrap;html=1;fixedSize=1;" vertex="1" parent="1">
          <mxGeometry x="117.5" y="300" width="165" height="30" as="geometry" />
        </mxCell>
        <mxCell id="xXruDj0edoCPTzMCnj74-18" value="" style="endArrow=classic;html=1;rounded=0;" edge="1" parent="1">
          <mxGeometry width="50" height="50" relative="1" as="geometry">
            <mxPoint x="199.5" y="330" as="sourcePoint" />
            <mxPoint x="200" y="350" as="targetPoint" />
          </mxGeometry>
        </mxCell>
        <mxCell id="xXruDj0edoCPTzMCnj74-19" value="cin &amp;gt;&amp;gt; m[i];" style="shape=parallelogram;perimeter=parallelogramPerimeter;whiteSpace=wrap;html=1;fixedSize=1;" vertex="1" parent="1">
          <mxGeometry x="147.5" y="350" width="110" height="30" as="geometry" />
        </mxCell>
        <mxCell id="xXruDj0edoCPTzMCnj74-20" value="" style="endArrow=classic;html=1;rounded=0;entryX=0;entryY=0.5;entryDx=0;entryDy=0;" edge="1" parent="1" target="xXruDj0edoCPTzMCnj74-16">
          <mxGeometry width="50" height="50" relative="1" as="geometry">
            <mxPoint x="199.5" y="380" as="sourcePoint" />
            <mxPoint x="70" y="250" as="targetPoint" />
            <Array as="points">
              <mxPoint x="200" y="400" />
              <mxPoint x="100" y="400" />
              <mxPoint x="100" y="315" />
            </Array>
          </mxGeometry>
        </mxCell>
        <mxCell id="xXruDj0edoCPTzMCnj74-21" value="" style="endArrow=classic;html=1;rounded=0;" edge="1" parent="1">
          <mxGeometry width="50" height="50" relative="1" as="geometry">
            <mxPoint x="282.5" y="314.5" as="sourcePoint" />
            <mxPoint x="300" y="350" as="targetPoint" />
            <Array as="points">
              <mxPoint x="300" y="315" />
            </Array>
          </mxGeometry>
        </mxCell>
        <mxCell id="xXruDj0edoCPTzMCnj74-22" value="cout&amp;lt;&amp;lt;endl;" style="shape=parallelogram;perimeter=parallelogramPerimeter;whiteSpace=wrap;html=1;fixedSize=1;" vertex="1" parent="1">
          <mxGeometry x="257.5" y="350" width="110" height="30" as="geometry" />
        </mxCell>
        <mxCell id="xXruDj0edoCPTzMCnj74-23" value="" style="endArrow=classic;html=1;rounded=0;" edge="1" parent="1">
          <mxGeometry width="50" height="50" relative="1" as="geometry">
            <mxPoint x="300" y="380" as="sourcePoint" />
            <mxPoint x="210" y="440" as="targetPoint" />
            <Array as="points">
              <mxPoint x="300" y="420" />
              <mxPoint x="210" y="420" />
            </Array>
          </mxGeometry>
        </mxCell>
        <mxCell id="xXruDj0edoCPTzMCnj74-24" value="for (int i = 0; i &amp;lt; n - 1; i++)&amp;nbsp;" style="shape=hexagon;perimeter=hexagonPerimeter2;whiteSpace=wrap;html=1;fixedSize=1;" vertex="1" parent="1">
          <mxGeometry x="135" y="440" width="142.5" height="40" as="geometry" />
        </mxCell>
        <mxCell id="xXruDj0edoCPTzMCnj74-25" value="" style="endArrow=classic;html=1;rounded=0;" edge="1" parent="1">
          <mxGeometry width="50" height="50" relative="1" as="geometry">
            <mxPoint x="210" y="480" as="sourcePoint" />
            <mxPoint x="210" y="500" as="targetPoint" />
          </mxGeometry>
        </mxCell>
        <mxCell id="xXruDj0edoCPTzMCnj74-26" value="for (int j = n - 1; j &amp;gt; i; j--)" style="shape=hexagon;perimeter=hexagonPerimeter2;whiteSpace=wrap;html=1;fixedSize=1;" vertex="1" parent="1">
          <mxGeometry x="135" y="500" width="142.5" height="40" as="geometry" />
        </mxCell>
        <mxCell id="xXruDj0edoCPTzMCnj74-27" value="" style="endArrow=classic;html=1;rounded=0;" edge="1" parent="1">
          <mxGeometry width="50" height="50" relative="1" as="geometry">
            <mxPoint x="210" y="540" as="sourcePoint" />
            <mxPoint x="210" y="560" as="targetPoint" />
          </mxGeometry>
        </mxCell>
        <mxCell id="xXruDj0edoCPTzMCnj74-28" value="if (m[j] &amp;lt; m[j - 1])" style="rhombus;whiteSpace=wrap;html=1;" vertex="1" parent="1">
          <mxGeometry x="145" y="559.5" width="130" height="50" as="geometry" />
        </mxCell>
        <mxCell id="xXruDj0edoCPTzMCnj74-29" value="" style="endArrow=classic;html=1;rounded=0;" edge="1" parent="1">
          <mxGeometry width="50" height="50" relative="1" as="geometry">
            <mxPoint x="145" y="585" as="sourcePoint" />
            <mxPoint x="120" y="610" as="targetPoint" />
            <Array as="points">
              <mxPoint x="120" y="585" />
            </Array>
          </mxGeometry>
        </mxCell>
        <mxCell id="xXruDj0edoCPTzMCnj74-30" value="r = m[j];" style="rounded=0;whiteSpace=wrap;html=1;" vertex="1" parent="1">
          <mxGeometry x="70" y="609.5" width="100" height="40" as="geometry" />
        </mxCell>
        <mxCell id="xXruDj0edoCPTzMCnj74-31" value="" style="endArrow=classic;html=1;rounded=0;" edge="1" parent="1">
          <mxGeometry width="50" height="50" relative="1" as="geometry">
            <mxPoint x="119.5" y="649.5" as="sourcePoint" />
            <mxPoint x="119.5" y="669.5" as="targetPoint" />
          </mxGeometry>
        </mxCell>
        <mxCell id="xXruDj0edoCPTzMCnj74-32" value="m[j] = m[j - 1];" style="rounded=0;whiteSpace=wrap;html=1;" vertex="1" parent="1">
          <mxGeometry x="70" y="670" width="100" height="40" as="geometry" />
        </mxCell>
        <mxCell id="xXruDj0edoCPTzMCnj74-33" value="" style="endArrow=classic;html=1;rounded=0;" edge="1" parent="1">
          <mxGeometry width="50" height="50" relative="1" as="geometry">
            <mxPoint x="119.5" y="710" as="sourcePoint" />
            <mxPoint x="119.5" y="730" as="targetPoint" />
          </mxGeometry>
        </mxCell>
        <mxCell id="xXruDj0edoCPTzMCnj74-34" value="m[j - 1] = r;" style="rounded=0;whiteSpace=wrap;html=1;" vertex="1" parent="1">
          <mxGeometry x="70" y="730" width="100" height="40" as="geometry" />
        </mxCell>
        <mxCell id="xXruDj0edoCPTzMCnj74-35" value="" style="endArrow=classic;html=1;rounded=0;" edge="1" parent="1">
          <mxGeometry width="50" height="50" relative="1" as="geometry">
            <mxPoint x="119.5" y="770" as="sourcePoint" />
            <mxPoint x="210" y="790" as="targetPoint" />
            <Array as="points">
              <mxPoint x="120" y="790" />
            </Array>
          </mxGeometry>
        </mxCell>
        <mxCell id="xXruDj0edoCPTzMCnj74-36" value="" style="endArrow=classic;html=1;rounded=0;" edge="1" parent="1">
          <mxGeometry width="50" height="50" relative="1" as="geometry">
            <mxPoint x="277.5" y="584" as="sourcePoint" />
            <mxPoint x="210" y="790" as="targetPoint" />
            <Array as="points">
              <mxPoint x="310" y="584" />
              <mxPoint x="310" y="790" />
            </Array>
          </mxGeometry>
        </mxCell>
        <mxCell id="xXruDj0edoCPTzMCnj74-37" value="" style="endArrow=classic;html=1;rounded=0;" edge="1" parent="1">
          <mxGeometry width="50" height="50" relative="1" as="geometry">
            <mxPoint x="209.38" y="790" as="sourcePoint" />
            <mxPoint x="209" y="810" as="targetPoint" />
          </mxGeometry>
        </mxCell>
        <mxCell id="xXruDj0edoCPTzMCnj74-38" value="for (int i = 0; i &amp;lt; n; i++)" style="shape=hexagon;perimeter=hexagonPerimeter2;whiteSpace=wrap;html=1;fixedSize=1;" vertex="1" parent="1">
          <mxGeometry x="127.5" y="810" width="165" height="30" as="geometry" />
        </mxCell>
        <mxCell id="xXruDj0edoCPTzMCnj74-39" value="" style="endArrow=classic;html=1;rounded=0;" edge="1" parent="1">
          <mxGeometry width="50" height="50" relative="1" as="geometry">
            <mxPoint x="209.5" y="840" as="sourcePoint" />
            <mxPoint x="210" y="860" as="targetPoint" />
          </mxGeometry>
        </mxCell>
        <mxCell id="xXruDj0edoCPTzMCnj74-40" value="cout&amp;lt;&amp;lt;m[i]&amp;lt;&amp;lt;&quot; &quot;;" style="shape=parallelogram;perimeter=parallelogramPerimeter;whiteSpace=wrap;html=1;fixedSize=1;" vertex="1" parent="1">
          <mxGeometry x="157.5" y="860" width="110" height="30" as="geometry" />
        </mxCell>
        <mxCell id="xXruDj0edoCPTzMCnj74-41" value="" style="endArrow=classic;html=1;rounded=0;entryX=0;entryY=0.5;entryDx=0;entryDy=0;" edge="1" parent="1" target="xXruDj0edoCPTzMCnj74-38">
          <mxGeometry width="50" height="50" relative="1" as="geometry">
            <mxPoint x="209.5" y="890" as="sourcePoint" />
            <mxPoint x="80" y="760" as="targetPoint" />
            <Array as="points">
              <mxPoint x="210" y="910" />
              <mxPoint x="110" y="910" />
              <mxPoint x="110" y="825" />
            </Array>
          </mxGeometry>
        </mxCell>
        <mxCell id="xXruDj0edoCPTzMCnj74-42" value="" style="endArrow=classic;html=1;rounded=0;" edge="1" parent="1">
          <mxGeometry width="50" height="50" relative="1" as="geometry">
            <mxPoint x="292.5" y="824.5" as="sourcePoint" />
            <mxPoint x="310" y="860" as="targetPoint" />
            <Array as="points">
              <mxPoint x="310" y="825" />
            </Array>
          </mxGeometry>
        </mxCell>
        <mxCell id="xXruDj0edoCPTzMCnj74-43" value="cout&amp;lt;&amp;lt;endl;" style="shape=parallelogram;perimeter=parallelogramPerimeter;whiteSpace=wrap;html=1;fixedSize=1;" vertex="1" parent="1">
          <mxGeometry x="257.5" y="860" width="110" height="30" as="geometry" />
        </mxCell>
        <mxCell id="xXruDj0edoCPTzMCnj74-44" value="" style="endArrow=classic;html=1;rounded=0;entryX=0;entryY=0.5;entryDx=0;entryDy=0;" edge="1" parent="1" target="xXruDj0edoCPTzMCnj74-26">
          <mxGeometry width="50" height="50" relative="1" as="geometry">
            <mxPoint x="300" y="890" as="sourcePoint" />
            <mxPoint x="20" y="680" as="targetPoint" />
            <Array as="points">
              <mxPoint x="300" y="930" />
              <mxPoint x="210" y="930" />
              <mxPoint x="60" y="930" />
              <mxPoint x="60" y="520" />
            </Array>
          </mxGeometry>
        </mxCell>
        <mxCell id="xXruDj0edoCPTzMCnj74-45" value="" style="endArrow=classic;html=1;rounded=0;entryX=0;entryY=0.5;entryDx=0;entryDy=0;" edge="1" parent="1" target="xXruDj0edoCPTzMCnj74-24">
          <mxGeometry width="50" height="50" relative="1" as="geometry">
            <mxPoint x="277.5" y="520" as="sourcePoint" />
            <mxPoint x="40" y="440" as="targetPoint" />
            <Array as="points">
              <mxPoint x="370" y="520" />
              <mxPoint x="370" y="970" />
              <mxPoint x="40" y="970" />
              <mxPoint x="40" y="460" />
            </Array>
          </mxGeometry>
        </mxCell>
        <mxCell id="xXruDj0edoCPTzMCnj74-46" value="" style="endArrow=classic;html=1;rounded=0;" edge="1" parent="1" target="xXruDj0edoCPTzMCnj74-47">
          <mxGeometry width="50" height="50" relative="1" as="geometry">
            <mxPoint x="277.5" y="460" as="sourcePoint" />
            <mxPoint x="210" y="1030" as="targetPoint" />
            <Array as="points">
              <mxPoint x="400" y="460" />
              <mxPoint x="400" y="1000" />
              <mxPoint x="210" y="1000" />
            </Array>
          </mxGeometry>
        </mxCell>
        <mxCell id="xXruDj0edoCPTzMCnj74-47" value="cout &amp;lt;&amp;lt; &quot;отсортированный массив &quot;;" style="shape=parallelogram;perimeter=parallelogramPerimeter;whiteSpace=wrap;html=1;fixedSize=1;" vertex="1" parent="1">
          <mxGeometry x="146.25" y="1020" width="127.5" height="40" as="geometry" />
        </mxCell>
        <mxCell id="xXruDj0edoCPTzMCnj74-48" value="" style="endArrow=classic;html=1;rounded=0;" edge="1" parent="1">
          <mxGeometry width="50" height="50" relative="1" as="geometry">
            <mxPoint x="209.47" y="1060" as="sourcePoint" />
            <mxPoint x="209" y="1080" as="targetPoint" />
          </mxGeometry>
        </mxCell>
        <mxCell id="xXruDj0edoCPTzMCnj74-50" value="for (int i = 0; i &amp;lt; n; i++)" style="shape=hexagon;perimeter=hexagonPerimeter2;whiteSpace=wrap;html=1;fixedSize=1;" vertex="1" parent="1">
          <mxGeometry x="117.5" y="1080" width="165" height="30" as="geometry" />
        </mxCell>
        <mxCell id="xXruDj0edoCPTzMCnj74-51" value="" style="endArrow=classic;html=1;rounded=0;" edge="1" parent="1">
          <mxGeometry width="50" height="50" relative="1" as="geometry">
            <mxPoint x="199.5" y="1110" as="sourcePoint" />
            <mxPoint x="200" y="1130" as="targetPoint" />
          </mxGeometry>
        </mxCell>
        <mxCell id="xXruDj0edoCPTzMCnj74-52" value="cout &amp;lt;&amp;lt; m[i] &amp;lt;&amp;lt; &quot; &quot;;" style="shape=parallelogram;perimeter=parallelogramPerimeter;whiteSpace=wrap;html=1;fixedSize=1;" vertex="1" parent="1">
          <mxGeometry x="136.25" y="1130" width="132.5" height="30" as="geometry" />
        </mxCell>
        <mxCell id="xXruDj0edoCPTzMCnj74-53" value="" style="endArrow=classic;html=1;rounded=0;entryX=0;entryY=0.5;entryDx=0;entryDy=0;" edge="1" parent="1" target="xXruDj0edoCPTzMCnj74-50">
          <mxGeometry width="50" height="50" relative="1" as="geometry">
            <mxPoint x="199.5" y="1160" as="sourcePoint" />
            <mxPoint x="70" y="1030" as="targetPoint" />
            <Array as="points">
              <mxPoint x="200" y="1180" />
              <mxPoint x="100" y="1180" />
              <mxPoint x="100" y="1095" />
            </Array>
          </mxGeometry>
        </mxCell>
        <mxCell id="xXruDj0edoCPTzMCnj74-54" value="" style="endArrow=classic;html=1;rounded=0;" edge="1" parent="1">
          <mxGeometry width="50" height="50" relative="1" as="geometry">
            <mxPoint x="282.5" y="1094.5" as="sourcePoint" />
            <mxPoint x="200" y="1210" as="targetPoint" />
            <Array as="points">
              <mxPoint x="300" y="1095" />
              <mxPoint x="300" y="1190" />
              <mxPoint x="200" y="1190" />
            </Array>
          </mxGeometry>
        </mxCell>
        <mxCell id="xXruDj0edoCPTzMCnj74-56" value="return 0;" style="ellipse;whiteSpace=wrap;html=1;" vertex="1" parent="1">
          <mxGeometry x="140" y="1210" width="120" height="30" as="geometry" />
        </mxCell>
        <mxCell id="xXruDj0edoCPTzMCnj74-57" value="1" style="text;html=1;align=center;verticalAlign=middle;resizable=0;points=[];autosize=1;strokeColor=none;fillColor=none;" vertex="1" parent="1">
          <mxGeometry x="197.5" y="330" width="30" height="30" as="geometry" />
        </mxCell>
        <mxCell id="xXruDj0edoCPTzMCnj74-58" value="0" style="text;html=1;align=center;verticalAlign=middle;resizable=0;points=[];autosize=1;strokeColor=none;fillColor=none;" vertex="1" parent="1">
          <mxGeometry x="275" y="290" width="30" height="30" as="geometry" />
        </mxCell>
        <mxCell id="xXruDj0edoCPTzMCnj74-59" value="1" style="text;html=1;align=center;verticalAlign=middle;resizable=0;points=[];autosize=1;strokeColor=none;fillColor=none;" vertex="1" parent="1">
          <mxGeometry x="210" y="480" width="30" height="30" as="geometry" />
        </mxCell>
        <mxCell id="xXruDj0edoCPTzMCnj74-60" value="0" style="text;html=1;align=center;verticalAlign=middle;resizable=0;points=[];autosize=1;strokeColor=none;fillColor=none;" vertex="1" parent="1">
          <mxGeometry x="297.5" y="440" width="30" height="30" as="geometry" />
        </mxCell>
        <mxCell id="xXruDj0edoCPTzMCnj74-61" value="1" style="text;html=1;align=center;verticalAlign=middle;resizable=0;points=[];autosize=1;strokeColor=none;fillColor=none;" vertex="1" parent="1">
          <mxGeometry x="115" y="558" width="30" height="30" as="geometry" />
        </mxCell>
        <mxCell id="xXruDj0edoCPTzMCnj74-62" value="0" style="text;html=1;align=center;verticalAlign=middle;resizable=0;points=[];autosize=1;strokeColor=none;fillColor=none;" vertex="1" parent="1">
          <mxGeometry x="275" y="558" width="30" height="30" as="geometry" />
        </mxCell>
        <mxCell id="xXruDj0edoCPTzMCnj74-63" value="0" style="text;html=1;align=center;verticalAlign=middle;resizable=0;points=[];autosize=1;strokeColor=none;fillColor=none;" vertex="1" parent="1">
          <mxGeometry x="282.5" y="800" width="30" height="30" as="geometry" />
        </mxCell>
        <mxCell id="xXruDj0edoCPTzMCnj74-64" value="1" style="text;html=1;align=center;verticalAlign=middle;resizable=0;points=[];autosize=1;strokeColor=none;fillColor=none;" vertex="1" parent="1">
          <mxGeometry x="210" y="840" width="30" height="30" as="geometry" />
        </mxCell>
        <mxCell id="xXruDj0edoCPTzMCnj74-65" value="{" style="text;html=1;align=center;verticalAlign=middle;resizable=0;points=[];autosize=1;strokeColor=none;fillColor=none;" vertex="1" parent="1">
          <mxGeometry x="80" y="584" width="30" height="30" as="geometry" />
        </mxCell>
        <mxCell id="xXruDj0edoCPTzMCnj74-66" value="}" style="text;html=1;align=center;verticalAlign=middle;resizable=0;points=[];autosize=1;strokeColor=none;fillColor=none;" vertex="1" parent="1">
          <mxGeometry x="135" y="770" width="30" height="30" as="geometry" />
        </mxCell>
        <mxCell id="xXruDj0edoCPTzMCnj74-67" value="1" style="text;html=1;align=center;verticalAlign=middle;resizable=0;points=[];autosize=1;strokeColor=none;fillColor=none;" vertex="1" parent="1">
          <mxGeometry x="197.5" y="1100" width="30" height="30" as="geometry" />
        </mxCell>
        <mxCell id="xXruDj0edoCPTzMCnj74-68" value="0" style="text;html=1;align=center;verticalAlign=middle;resizable=0;points=[];autosize=1;strokeColor=none;fillColor=none;" vertex="1" parent="1">
          <mxGeometry x="275" y="1070" width="30" height="30" as="geometry" />
        </mxCell>
      </root>
    </mxGraphModel>
  </diagram>
</mxfile>
